<?xml version="1.0" encoding="utf-8"?>
<!-- Generator: Adobe Illustrator 25.2.1, SVG Export Plug-In . SVG Version: 6.00 Build 0)  -->
<svg version="1.1" id="图层_1" xmlns="http://www.w3.org/2000/svg" xmlns:xlink="http://www.w3.org/1999/xlink" x="0px" y="0px"
	 viewBox="0 0 30 30" style="enable-background:new 0 0 30 30;" xml:space="preserve">
<style type="text/css">
	.st0{fill:#00CC05;}
	.st1{fill:#FFDA00;}
	.st2{fill:#246EFF;}
	.st3{fill:#004AB5;}
	.st4{fill:#FF5050;}
</style>
<g>
	<path class="st0" d="M3.74,3.26h13.54c0,0,4.5,0,7.99,4.66c2.33,3.12,2.31,5.42,2.31,5.42s-0.88-2.44-7.04-2.41
		c-7.43,0.04-10.59,0.04-10.59,0.04S3.23,11.28,3.74,3.26z"/>
	<path class="st1" d="M6.37,3.26h10.92c0,0,4.5,0,7.99,4.66c2.33,3.12,2.31,5.42,2.31,5.42s-0.88-2.44-7.04-2.41
		c-7.43,0.04-7.97,0.04-7.97,0.04S5.87,11.28,6.37,3.26z"/>
	<g>
		<path class="st2" d="M16.04,26.74H2.45L4.88,14.5h6.77l-1.02,5.15h5.4c2.52,0,4.58-2.06,4.58-4.58s-2.06-4.58-4.58-4.58h-1.98
			v-7.1h1.98c6.44,0,11.68,5.24,11.68,11.68C27.72,21.5,22.48,26.74,16.04,26.74z"/>
	</g>
	<path class="st3" d="M27.64,13.61c0,0-3.95-0.9-7.06,0.88c0,0-0.31-2.39-2.47-3.55C18.11,10.95,27.32,8.46,27.64,13.61z"/>
	<path class="st4" d="M8.99,3.26h8.68c0,0,3.92,0,7.6,4.66c2.24,2.84,2.38,5.92,2.38,5.92s0.06-2.89-4.48-2.9
		c-7.4-0.02-7.97,0.04-7.97,0.04S8.49,11.28,8.99,3.26z"/>
</g>
</svg>
